<svg width="147" height="186" viewBox="0 0 147 186" fill="none" xmlns="http://www.w3.org/2000/svg">
<mask id="path-1-outside-1_27_3" maskUnits="userSpaceOnUse" x="-0.150391" y="-0.472656" width="147" height="186" fill="black">
<rect fill="white" x="-0.150391" y="-0.472656" width="147" height="186"/>
<path d="M57.1191 98.0127V146.23C57.1191 156.647 58.2585 163.117 60.5371 165.64C63.6296 169.22 68.3089 171.011 74.5752 171.011H80.9229V175.527H10V171.011H16.2256C23.2243 171.011 28.2292 168.732 31.2402 164.175C32.8678 161.652 33.6816 155.671 33.6816 146.23V39.2969C33.6816 28.8802 32.583 22.4105 30.3857 19.8877C27.2119 16.307 22.4919 14.5166 16.2256 14.5166H10V10H70.6689C85.4801 10 97.1582 11.5462 105.703 14.6387C114.248 17.6497 121.45 22.7767 127.31 30.0195C133.169 37.2624 136.099 45.848 136.099 55.7764C136.099 69.2855 131.623 80.2718 122.671 88.7354C113.8 97.1989 101.227 101.431 84.9512 101.431C80.9635 101.431 76.6504 101.146 72.0117 100.576C67.373 100.007 62.4089 99.152 57.1191 98.0127ZM57.1191 91.0547C61.4323 91.8685 65.2572 92.4788 68.5938 92.8857C71.9303 93.2926 74.7786 93.4961 77.1387 93.4961C85.6022 93.4961 92.8857 90.2409 98.9893 83.7305C105.174 77.1387 108.267 68.6344 108.267 58.2178C108.267 51.0563 106.802 44.4238 103.872 38.3203C100.942 32.1354 96.792 27.5374 91.4209 24.5264C86.0498 21.4339 79.9463 19.8877 73.1104 19.8877C68.96 19.8877 63.6296 20.6608 57.1191 22.207V91.0547Z"/>
</mask>
<path d="M57.1191 98.0127L59.2247 88.2369L47.1191 85.6295V98.0127H57.1191ZM60.5371 165.64L68.1053 159.103L68.0327 159.019L67.9581 158.937L60.5371 165.64ZM80.9229 171.011H90.9229V161.011H80.9229V171.011ZM80.9229 175.527V185.527H90.9229V175.527H80.9229ZM10 175.527H0V185.527H10V175.527ZM10 171.011V161.011H0V171.011H10ZM31.2402 164.175L39.5836 169.687L39.6136 169.642L39.6432 169.596L31.2402 164.175ZM30.3857 19.8877L37.9266 13.3199L37.898 13.2871L37.8692 13.2546L30.3857 19.8877ZM10 14.5166H0V24.5166H10V14.5166ZM10 10V0H0V10H10ZM105.703 14.6387L102.3 24.0418L102.34 24.0562L102.38 24.0702L105.703 14.6387ZM122.671 88.7354L115.801 81.4689L115.784 81.4845L115.768 81.5003L122.671 88.7354ZM57.1191 91.0547H47.1191V99.3443L55.2651 100.881L57.1191 91.0547ZM68.5938 92.8857L67.3832 102.812L68.5938 92.8857ZM98.9893 83.7305L91.6967 76.8881L91.6939 76.8911L98.9893 83.7305ZM103.872 38.3203L94.8347 42.6012L94.8457 42.6244L94.8568 42.6476L103.872 38.3203ZM91.4209 24.5264L86.4313 33.1926L86.4809 33.2212L86.5308 33.2492L91.4209 24.5264ZM57.1191 22.207L54.8084 12.4777L47.1191 14.3039V22.207H57.1191ZM57.1191 98.0127H47.1191V146.23H57.1191H67.1191V98.0127H57.1191ZM57.1191 146.23H47.1191C47.1191 151.725 47.4139 156.591 48.1252 160.63C48.7669 164.274 50.0039 168.897 53.1161 172.343L60.5371 165.64L67.9581 158.937C68.4888 159.524 68.5443 159.862 68.3893 159.455C68.2503 159.089 68.0343 158.366 67.8221 157.161C67.394 154.73 67.1191 151.152 67.1191 146.23H57.1191ZM60.5371 165.64L52.9689 172.176C58.5293 178.614 66.4027 181.011 74.5752 181.011V171.011V161.011C70.2151 161.011 68.7298 159.827 68.1053 159.103L60.5371 165.64ZM74.5752 171.011V181.011H80.9229V171.011V161.011H74.5752V171.011ZM80.9229 171.011H70.9229V175.527H80.9229H90.9229V171.011H80.9229ZM80.9229 175.527V165.527H10V175.527V185.527H80.9229V175.527ZM10 175.527H20V171.011H10H0V175.527H10ZM10 171.011V181.011H16.2256V171.011V161.011H10V171.011ZM16.2256 171.011V181.011C25.5189 181.011 34.203 177.831 39.5836 169.687L31.2402 164.175L22.8969 158.662C22.2553 159.633 20.9297 161.011 16.2256 161.011V171.011ZM31.2402 164.175L39.6432 169.596C41.7102 166.392 42.5357 162.41 42.98 159.145C43.4716 155.532 43.6816 151.181 43.6816 146.23H33.6816H23.6816C23.6816 150.72 23.4848 154.08 23.1626 156.449C22.7931 159.164 22.3979 159.435 22.8373 158.754L31.2402 164.175ZM33.6816 146.23H43.6816V39.2969H33.6816H23.6816V146.23H33.6816ZM33.6816 39.2969H43.6816C43.6816 33.8126 43.3978 28.9697 42.7165 24.9579C42.1043 21.3526 40.9264 16.7642 37.9266 13.3199L30.3857 19.8877L22.8449 26.4555C22.3267 25.8605 22.2803 25.5295 22.4385 25.9611C22.5793 26.3455 22.7917 27.0868 22.9988 28.3062C23.4162 30.7642 23.6816 34.3645 23.6816 39.2969H33.6816ZM30.3857 19.8877L37.8692 13.2546C32.2527 6.91806 24.414 4.5166 16.2256 4.5166V14.5166V24.5166C20.5697 24.5166 22.1711 25.6959 22.9023 26.5208L30.3857 19.8877ZM16.2256 14.5166V4.5166H10V14.5166V24.5166H16.2256V14.5166ZM10 14.5166H20V10H10H0V14.5166H10ZM10 10V20H70.6689V10V0H10V10ZM70.6689 10V20C84.9559 20 95.3166 21.5145 102.3 24.0418L105.703 14.6387L109.106 5.23552C98.9998 1.57799 86.0044 0 70.6689 0V10ZM105.703 14.6387L102.38 24.0702C109.127 26.448 114.805 30.4625 119.535 36.309L127.31 30.0195L135.084 23.7301C128.095 15.0909 119.369 8.85145 109.027 5.20711L105.703 14.6387ZM127.31 30.0195L119.535 36.309C123.856 41.6501 126.099 47.9757 126.099 55.7764H136.099H146.099C146.099 43.7203 142.482 32.8746 135.084 23.7301L127.31 30.0195ZM136.099 55.7764H126.099C126.099 66.8307 122.55 75.0875 115.801 81.4689L122.671 88.7354L129.541 96.0018C140.695 85.4561 146.099 71.7403 146.099 55.7764H136.099ZM122.671 88.7354L115.768 81.5003C109.301 87.6703 99.5214 91.4307 84.9512 91.4307V101.431V111.431C102.933 111.431 118.3 106.727 129.574 95.9704L122.671 88.7354ZM84.9512 101.431V91.4307C81.4331 91.4307 77.5317 91.1789 73.2306 90.6507L72.0117 100.576L70.7928 110.502C75.7691 111.113 80.4939 111.431 84.9512 111.431V101.431ZM72.0117 100.576L73.2306 90.6507C68.9316 90.1228 64.2658 89.3226 59.2247 88.2369L57.1191 98.0127L55.0136 107.789C60.5519 108.981 65.8145 109.89 70.7928 110.502L72.0117 100.576ZM57.1191 91.0547L55.2651 100.881C59.7312 101.724 63.7777 102.372 67.3832 102.812L68.5938 92.8857L69.8043 82.9593C66.7367 82.5852 63.1334 82.013 58.9732 81.2281L57.1191 91.0547ZM68.5938 92.8857L67.3832 102.812C70.9681 103.249 74.2444 103.496 77.1387 103.496V93.4961V83.4961C75.3129 83.4961 72.8925 83.3359 69.8043 82.9593L68.5938 92.8857ZM77.1387 93.4961V103.496C88.5308 103.496 98.4062 98.9736 106.285 90.5699L98.9893 83.7305L91.6939 76.8911C87.3653 81.5082 82.6736 83.4961 77.1387 83.4961V93.4961ZM98.9893 83.7305L106.282 90.5729C114.471 81.8448 118.267 70.7607 118.267 58.2178H108.267H98.2666C98.2666 66.5082 95.8772 72.4325 91.6967 76.8881L98.9893 83.7305ZM108.267 58.2178H118.267C118.267 49.6469 116.502 41.5247 112.887 33.993L103.872 38.3203L94.8568 42.6476C97.101 47.323 98.2666 52.4657 98.2666 58.2178H108.267ZM103.872 38.3203L112.909 34.0394C109.195 26.198 103.692 19.9413 96.311 15.8036L91.4209 24.5264L86.5308 33.2492C89.8921 35.1335 92.6897 38.0728 94.8347 42.6012L103.872 38.3203ZM91.4209 24.5264L96.4105 15.8601C89.369 11.8059 81.5125 9.8877 73.1104 9.8877V19.8877V29.8877C78.38 29.8877 82.7306 31.0619 86.4313 33.1926L91.4209 24.5264ZM73.1104 19.8877V9.8877C67.8566 9.8877 61.6755 10.8467 54.8084 12.4777L57.1191 22.207L59.4299 31.9364C65.5836 30.4749 70.0633 29.8877 73.1104 29.8877V19.8877ZM57.1191 22.207H47.1191V91.0547H57.1191H67.1191V22.207H57.1191Z" fill="#002E84" mask="url(#path-1-outside-1_27_3)"/>
</svg>
